# xmcd
#
# Track frame offsets: 
#        150
#        18111
#        35115
#        57121
#        73089
#        94282
#        113991
#        133891
#        145342
#        165745
#
# Disc length: 2414 seconds
#
# Revision: 0
# Processed by: cddbd v1.5.2PL0 Copyright (c) Steve Scherf et al.
# Submitted via: ExactAudioCopy v1.2
#
DISCID=92096c0a
DTITLE=The Bluesmen - The Devil Is a Bluesman
DYEAR=2018
DGENRE=Blues
TTITLE0=The Devil Is a Bluesman
TTITLE1=Watching the Lines
TTITLE2=Paymaster Blues
TTITLE3=Workin' on That
TTITLE4=Walk On
TTITLE5=Don't Pave That Gravel Road
TTITLE6=Trash Talkin'
TTITLE7=Bluesmen Boogie
TTITLE8=Bailbondsman Blues
TTITLE9=Seems I Had a Chance with You
EXTD=
EXTT0=
EXTT1=
EXTT2=
EXTT3=
EXTT4=
EXTT5=
EXTT6=
EXTT7=
EXTT8=
EXTT9=
PLAYORDER=
